<svg id="Component_5_17" data-name="Component 5 – 17" xmlns="http://www.w3.org/2000/svg" width="167.667" height="213.521" viewBox="0 0 167.667 213.521">
  <path id="Path_25" data-name="Path 25" d="M97.335,61.971V59.245A4.262,4.262,0,0,0,96.2,58.8a18.356,18.356,0,0,0-2.054.214,3.97,3.97,0,0,1-4.459-2.746c-1.389-3.408-1.389-5.219,2.386-6.485.274-.1.45-.487.841-.935A15.75,15.75,0,0,1,95.4,38.717a11.241,11.241,0,0,1,13.886-4.888,75.92,75.92,0,0,1,8.038,3.583,8.6,8.6,0,0,1,4.655,5.3,4.977,4.977,0,0,1-.724,4.81c-2.132,2.882-3.11,6.154-1.349,9.173-1.565,3.622-2.953,6.894-4.459,10.4a21.107,21.107,0,0,1,3.423-.214,26.908,26.908,0,0,1,2.973.818c1.017.214,2.054.253,3.071.409,1.878.292,3.736.6,5.594.974,1.193.234,2.386.876,3.52.779,6.18-.545,11.891,2.123,17.934,2.415,3.266.156,6.532.876,9.8.9a164.856,164.856,0,0,1,18.6,1.3,12.641,12.641,0,0,0,3.618.195c2.19-.409,4.322-1.11,6.376-1.655,2.132-5.9,5.554-10.809,9.016-15.561,1.741-.312,3.207-.565,4.655-.818a4.32,4.32,0,0,1-.411,4.07A42.365,42.365,0,0,0,198.7,72.546c-.7,2.766-2.347,5.3-3.736,8.277v11c-3.97,2.084-8.273,2.512-12.517,3.038-5.359.682-10.718.156-16.057-.409a85.416,85.416,0,0,0-21.729.253,10.03,10.03,0,0,0-4.361,1.422c-1.838,1.227-3.872,2.2-6.043,3.408,2.836,1.383,5.339,1.694,8.038.312a17.988,17.988,0,0,1,4.4-1.344c.509-.1,1.134.39,2.093.74-5.672,5.628-12.419,7.3-19.812,8.024-.059,1.091-.156,3.038-.156,3.038s.235,5.979,1.213,8.667c.9,2.512,3.031,4.557,4.44,6.914a78.635,78.635,0,0,1,4.381,8.2,55.545,55.545,0,0,0,8.781,13.964c6.884,7.985,13.886,15.853,21.885,22.767a25.308,25.308,0,0,1,7.158,10.595,170.241,170.241,0,0,1,7.119,22.669,71.889,71.889,0,0,0,4.733,13.652c2.484,5.492,5.144,10.867,6.161,16.944.469,2.785,3.071,4.46,5.515,5.823a22.063,22.063,0,0,0,3.4,1.227c1.525.545,2.23,1.461,1.995,2.532s-1.173,1.714-2.895,1.577c-2.582-.234-5.339-.195-7.647-1.149-4.322-1.792-8.742-1.948-13.241-1.811a21.58,21.58,0,0,1-8.684-1.169c-1.565-.6-2.738-1.48-2.816-3.291-.313-6.933-3.227-12.971-6.434-18.93-3.012-5.628-6-11.257-9.075-16.846A60.809,60.809,0,0,0,140.6,185.017c-4.635-3.876-9.114-7.946-13.632-11.958a5.311,5.311,0,0,0-3.638-1.714c-7.608.039-15.216,0-22.922,0-1.056,1.149-2.132,2.259-3.149,3.408a48.662,48.662,0,0,1-9.642,8.589,19.831,19.831,0,0,0-6.356,6.68c-1.838,3.116-3.853,6.135-5.848,9.173a38.622,38.622,0,0,0-5.633,14.353,63.8,63.8,0,0,1-4.029,13.321,70.228,70.228,0,0,0-2.816,9.913c-.43,1.655-.587,3.408-1.017,5.064a3.921,3.921,0,0,1-3.716,3.077,10.57,10.57,0,0,1-2.073.1,23.276,23.276,0,0,0-11.187,1.227c-2.093.779-4.088,0-6.043-.76a1.691,1.691,0,0,1-.469-2.629,22.186,22.186,0,0,1,3.364-2.357A10.259,10.259,0,0,0,46.5,234.66a73.331,73.331,0,0,0,3.99-33.6,25.65,25.65,0,0,1,2.543-14,147.6,147.6,0,0,1,15.47-25.669,31.827,31.827,0,0,1,2.288-2.8,53.907,53.907,0,0,0,13.69-25.669,21.18,21.18,0,0,1,5.593-10.634c-1.173-.6-2.034-1.071-2.914-1.48-1.721-.8-3.481-1.5-5.183-2.357a8.833,8.833,0,0,1-5.085-6.758,71.762,71.762,0,0,1-1.232-9.718c-.117-5.862.137-11.724.274-17.586a10.571,10.571,0,0,1,.215-2.064,9.518,9.518,0,0,1,5.144-7.3,42.623,42.623,0,0,0,6.122-3.876,10.945,10.945,0,0,0,2.719-3.038c2.582-4.324,2.543-4.343,7.236-6.1Z" transform="translate(-37.983 -33.05)" fill="#23377f"/>
</svg>
