<svg xmlns="http://www.w3.org/2000/svg" width="129.703" height="213.521" viewBox="0 0 129.703 213.521">
  <path id="Path_35" data-name="Path 35" d="M252.668,80.527a31.784,31.784,0,0,1-3.853-3.761c-1.333-1.862-2.5-3.688-4.948-4.291a3.067,3.067,0,0,1-1.607-1.7c-1.15-2.648-2.666-5.186-1.972-8.326a6.679,6.679,0,0,0-.347-2.83c-1.351-5.752-4.2-10.809-7.45-15.666a8.379,8.379,0,0,0-4.072-3.268,10.07,10.07,0,0,1-3.268-2.008,5.041,5.041,0,0,1,.986-8.217,10.281,10.281,0,0,1,4.127-1.114,18.231,18.231,0,0,1,4.309.475c3.962.73,7.924,1.552,11.887,2.282,4.693.876,8.746,3.25,12.818,5.569.785.456,1.223,1.479,1.972,2.063,1.1.858,1.954,2.155,3.743,1.826,1.26-.237,2.009.822,2.775,1.662a2.743,2.743,0,0,1,.4,2.7c-.146.694.329,1.515.511,2.264.621,2.5.2,3.36-2.246,4.546-.676.329-1.406.566-2.355.949,1.041,1.333,1.9,2.447,2.812,3.615,1.15-.694,2.1-1.26,3.049-1.862a4.482,4.482,0,0,1,5.752.493,5.8,5.8,0,0,0,.785.511,20.553,20.553,0,0,1,2.337-.329c.274,0,.566.274,1,.493.949,4.492-1.589,8.326-2.812,12.562,1.132,1.844,2.173,3.834,3.506,5.624,1.881,2.52,4.181,4.546,7.614,4.473a10.382,10.382,0,0,1,5.112,1.242,12.792,12.792,0,0,0,7.431,1.114c6.153-.548,12.252.146,17.675,3.707,1.771,1.169,3.469,2.264,4.291,4.419a4.726,4.726,0,0,0,3.067,2.9,1.771,1.771,0,0,0,2.392-1.57c0-.8-.256-1.607-.2-2.392.146-2.082.128-4.2,2.428-5.423.73-.4,1.114-1.515,1.589-2.337.73-1.26,1.3-2.611,2.136-3.78a4.441,4.441,0,0,1,2.118-1.881c4.8-1.15,9.568-1.68,13.731,1.935,3.067,2.648,4.236,7.87,2.392,11.448-1.242,2.428-2.593,4.82-4.053,7.139a8.666,8.666,0,0,1-4.309,3.56c-3.8,1.589-7.943,2.684-11.138,5.587-.584.53-1.205,1.022-1.844,1.57a15.008,15.008,0,0,0,.42,2.465,7.932,7.932,0,0,1-.42,6.993,8.131,8.131,0,0,0-.657,3.25c-.091.968,0,1.935,0,2.9a9.8,9.8,0,0,1-3.067,7.87A14.921,14.921,0,0,0,323.312,136a9.827,9.827,0,0,1-2.867,3.761,27.563,27.563,0,0,0-4.893,5.313c-1.917,2.885-5,4.528-7.651,6.591-1.789,1.388-4.218,1.57-6.518,1.369a3.511,3.511,0,0,1-3.177-1.9,10.415,10.415,0,0,0-3.141-3.579c-3.853-3.287-3.926-3.579-2.921-8.764-.785-.876-1.5-.456-1.771.347a5.774,5.774,0,0,0,0,2.374,3.3,3.3,0,0,1-1.388,3.4c-1.424.931-1.607,2.319-1.662,3.816a32.846,32.846,0,0,0,1.278,10.042,71.848,71.848,0,0,1,1.735,9c.219,1.515-.822,2.3-2.447,2.173a1.873,1.873,0,0,1-1.99-1.716,18.6,18.6,0,0,0-1.077-5.277,5.953,5.953,0,0,0-.548,1.461c-.128,2.1-.2,4.2-.274,6.3a26.641,26.641,0,0,1-2.538,11.247,9.892,9.892,0,0,0-.329,8.016,18.12,18.12,0,0,1,.822,9.476,121.49,121.49,0,0,0-1.132,13.9,34.347,34.347,0,0,0,.584,5.77c1.023,7.742,5.77,12.361,12.708,15.118,1.022.4,2.228.365,3.3.676a48.859,48.859,0,0,1,5.039,1.589c.876.347,1.9,1,1.443,2.136-.237.584-1.15.949-1.826,1.278a3.643,3.643,0,0,1-1.424.164c-1.935.073-3.871.274-5.806.2-4.875-.2-9.677-.11-14.26,1.917a10.207,10.207,0,0,1-3.8.657,3.236,3.236,0,0,1-3.688-3.524,13,13,0,0,1,.383-3.36,25.585,25.585,0,0,0,.31-10.59,79.352,79.352,0,0,0-3.962-15.356c-1.589-1.059-3.25-.456-4.82-.6-2.483-.219-3.451-.895-3.3-3.177a37.418,37.418,0,0,0-1.132-11.028,28.493,28.493,0,0,1-.237-5.313c-.274-8.728-.456-17.456-.858-26.165a44,44,0,0,0-1.369-8.107,59.662,59.662,0,0,1-1.625-13.932c-.037-4.528-.274-9.038-.456-13.566a31.126,31.126,0,0,1,1.059-10.554,9.148,9.148,0,0,0-.146-5.679,72.881,72.881,0,0,1-3.232-22.44,72.291,72.291,0,0,0-1-8.983Z" transform="translate(-223.468 -29.331)" fill="#23377f"/>
</svg>
