<svg xmlns="http://www.w3.org/2000/svg" width="167.67" height="213.521" viewBox="0 0 167.67 213.521">
  <path id="Path_35" data-name="Path 35" d="M261.216,80.527c-2.053-1.515-3.8-2.483-4.98-3.761-1.723-1.862-3.234-3.688-6.4-4.291a3.588,3.588,0,0,1-2.077-1.7c-1.487-2.648-3.446-5.186-2.549-8.326a5.279,5.279,0,0,0-.448-2.83c-1.747-5.752-5.429-10.809-9.63-15.666a10.769,10.769,0,0,0-5.264-3.268,14.091,14.091,0,0,1-4.225-2.008c-3.352-2.5-2.762-6.464,1.275-8.217a16.413,16.413,0,0,1,5.334-1.114,30.2,30.2,0,0,1,5.57.475c5.122.73,10.244,1.552,15.366,2.282,6.066.876,11.306,3.25,16.57,5.569,1.015.456,1.581,1.479,2.549,2.063,1.416.858,2.526,2.155,4.839,1.826,1.629-.237,2.6.822,3.588,1.662.944.8.8,1.68.519,2.7-.189.694.425,1.515.661,2.264.8,2.5.26,3.36-2.9,4.546-.873.329-1.818.566-3.045.949,1.345,1.333,2.455,2.447,3.635,3.615,1.487-.694,2.714-1.26,3.942-1.862a7.111,7.111,0,0,1,7.435.493,8,8,0,0,0,1.015.511c1.015-.128,2.006-.292,3.021-.329a4.882,4.882,0,0,1,1.3.493c1.227,4.492-2.054,8.326-3.635,12.562,1.463,1.844,2.809,3.834,4.532,5.624,2.431,2.52,5.405,4.546,9.843,4.473a16.667,16.667,0,0,1,6.609,1.242,20.9,20.9,0,0,0,9.607,1.114c7.955-.548,15.838.146,22.848,3.707,2.29,1.169,4.485,2.264,5.547,4.419a5.707,5.707,0,0,0,3.965,2.9c1.463.365,3.068-.347,3.092-1.57,0-.8-.331-1.607-.26-2.392.189-2.082.165-4.2,3.139-5.423.944-.4,1.44-1.515,2.054-2.337a43.445,43.445,0,0,1,2.762-3.78,5.533,5.533,0,0,1,2.738-1.881c6.208-1.15,12.368-1.68,17.75,1.935,3.965,2.648,5.476,7.87,3.092,11.448-1.605,2.428-3.352,4.82-5.24,7.139a11,11,0,0,1-5.57,3.56c-4.91,1.589-10.268,2.684-14.4,5.587-.755.53-1.558,1.022-2.384,1.57a11.958,11.958,0,0,0,.543,2.465c1.062,2.41,1.2,4.674-.543,6.993a6.585,6.585,0,0,0-.85,3.25,23.835,23.835,0,0,0,0,2.9,8.77,8.77,0,0,1-3.965,7.87A15.19,15.19,0,0,0,352.539,136a10.571,10.571,0,0,1-3.706,3.761,31.882,31.882,0,0,0-6.326,5.313c-2.478,2.885-6.467,4.528-9.89,6.591-2.313,1.388-5.452,1.57-8.427,1.369-1.723-.11-3.4-.621-4.107-1.9-.9-1.57-2.478-2.52-4.06-3.579-4.98-3.287-5.075-3.579-3.777-8.764a1.337,1.337,0,0,0-2.29.347,4.5,4.5,0,0,0,0,2.374,3.019,3.019,0,0,1-1.794,3.4c-1.841.931-2.077,2.319-2.148,3.816a25.914,25.914,0,0,0,1.652,10.042,57.626,57.626,0,0,1,2.242,9c.283,1.515-1.062,2.3-3.163,2.173-1.393-.073-2.408-.566-2.573-1.716a15.013,15.013,0,0,0-1.393-5.277,5.193,5.193,0,0,0-.708,1.461c-.165,2.1-.26,4.2-.354,6.3a21.762,21.762,0,0,1-3.281,11.247,7.885,7.885,0,0,0-.425,8.016,14.285,14.285,0,0,1,1.062,9.476,94.656,94.656,0,0,0-1.463,13.9,26.873,26.873,0,0,0,.755,5.77c1.322,7.742,7.459,12.361,16.428,15.118,1.322.4,2.88.365,4.272.676,2.2.456,4.39.949,6.515,1.589,1.133.347,2.455,1,1.865,2.136-.307.584-1.487.949-2.36,1.278a6.015,6.015,0,0,1-1.841.164c-2.5.073-5,.274-7.506.2-6.3-.2-12.51-.11-18.435,1.917a16.7,16.7,0,0,1-4.91.657c-3.021.073-4.744-1.223-4.768-3.524a10.216,10.216,0,0,1,.5-3.36,19.952,19.952,0,0,0,.4-10.59,65.369,65.369,0,0,0-5.122-15.356c-2.053-1.059-4.2-.456-6.231-.6-3.21-.219-4.461-.895-4.272-3.177a29.353,29.353,0,0,0-1.463-11.028c-.5-1.7-.236-3.542-.307-5.313-.354-8.728-.59-17.456-1.109-26.165a35.037,35.037,0,0,0-1.77-8.107,46.881,46.881,0,0,1-2.1-13.932c-.047-4.528-.354-9.038-.59-13.566a24.435,24.435,0,0,1,1.369-10.554,7.2,7.2,0,0,0-.189-5.679,57.752,57.752,0,0,1-4.178-22.44c.024-3.031-.85-6.08-1.3-8.983Z" transform="translate(-223.468 -29.331)" fill="#23377f"/>
</svg>
