<svg xmlns="http://www.w3.org/2000/svg" width="167.67" height="213.52" viewBox="0 0 167.67 213.52">
  <path id="Path_29" data-name="Path 29" d="M281.326,220.156c-4.962,1.807-7.1,5.186-11.213,6.5a5.147,5.147,0,0,1-1.488-.307c-5.408-3.505-10.717-7.065-16.15-10.552a319.493,319.493,0,0,1-30.191-22.1,100.365,100.365,0,0,1-9.551-9.161c-5.21-5.547-10.171-11.2-15.257-16.8-1.191-1.3-2.506-2.548-3.746-3.812-5.607,2.1-10.841,4.047-16.572,6.2,1.265,4.246,2.555,8.835,3.994,13.406,1.116,3.577,2.654,7.1,3.572,10.7,1.216,4.9,2.506,9.721,5.954,14.129a8.113,8.113,0,0,1,1.488,3.632c.3,1.716-1.24,3.234-3.572,3.451a30.468,30.468,0,0,1-5.879-.072,55.424,55.424,0,0,1-5.731-1.066,24.3,24.3,0,0,0-10.395-.09c-3.895.885-7.839.578-11.759.434a2.55,2.55,0,0,1-1.861-1.048c-.347-.94.719-1.464,1.861-1.554a41.37,41.37,0,0,0,13.421-3.74c6.326-2.873,6.8-3.812,4.267-9-.447-.885-1.042-1.735-1.712-2.8-3.845-.506-7.715-.976-11.56-1.536-3.622-.524-7.442.126-11.362-.958a16.007,16.007,0,0,1-.5-2.764c-.05-4.156-.074-8.311-.025-12.485.025-3.83.2-7.679-.868-11.473-.273-.94-.124-1.915-.323-2.873-1.24-5.908,2.481-10.118,8.459-13.678,3.225-1.915,6.3-3.975,9.253-6.125,2.9-2.114,2.58-4.987-.521-7.083a18.568,18.568,0,0,1-1.985-1.247c-2.382-2.06-2.009-4.7.943-6.324,1.191-.65,2.7-1.012,4.019-1.572,1.092-.47,2.109-1.03,2.778-1.373-.2-3.4-.3-6.414-.571-9.413-.174-1.915-.645-3.794-.992-5.691-.843-4.318-1.166-8.582.918-12.792.744-1.482.868-3.126,1.489-4.662.992-2.439,2.158-4.842,3.324-7.245.67-1.355,1.489-2.656,2.233-3.975a4.657,4.657,0,0,0-.323-5.1c-1.24-2.042-2.084-4.192-3.3-6.252a14.671,14.671,0,0,0-2.431-2.746c-1.166-1.12-2.431-2.2-3.721-3.27-3-2.439-4.962-5.167-5.557-8.492-.223-1.337-1.563-2.62-2.555-3.849-3.151-3.939-3.175-3.939.471-7.552a4.293,4.293,0,0,0,.447-.7c-2.034-2.222-1.613-4.553.5-6.92.943-1.048,1.191-2.4,1.96-3.541a4.939,4.939,0,0,1,4.515-2.4c2.208.036,3.746.759,4.391,2.367a6.974,6.974,0,0,0,.546.921c-.2.416-.372.885-.62,1.319q-1.885,3.18,2.927,5.023a11.631,11.631,0,0,0,1.315-1.373c2.456-3.668,6.7-5.294,12.057-5.764a28.354,28.354,0,0,1,9.1.524,12.621,12.621,0,0,0,5.011.163c4.044-.542,8.881,2.566,9.129,5.493.223,2.638-.3,3.794-2.977,6.523.447,1.373,1.265,2.728,1.24,4.1,0,1.211-.967,2.4-1.414,3.632a9.879,9.879,0,0,0-.645,2.746c-.074,1.391.05,2.764.1,4.318.893.217,1.885.47,3.225.795.546,1.192,1.166,2.53,1.786,3.848,2.332,1.464,4.565,2.981,6.946,4.354,4.416,2.548,6.8,6,7.294,9.883.6,4.842,3.7,8.98,7.169,12.7,5.334,5.746,9.353,11.925,13.744,18,2.332,3.234,5.706,6.089,7.1,9.684a20.913,20.913,0,0,0,5.9,7.932c4.019,3.6,4.54,7.86,4.118,12.268-.1,1.084-3.622,5.186-4.937,5.944a4.164,4.164,0,0,1-3.622.488,20.776,20.776,0,0,0-3.523-.379c-.843-1.048-1.836-2.259-2.853-3.505-1.464-.379-3.349.217-4.664-1.066-1.191-1.174-2.506-2.222-2.63-3.758-.149-1.716-.248-3.433-.4-5.276-1.885,0-3.6.036-5.284,0-3.771-.108-5.284-.849-5.979-3.469a16.877,16.877,0,0,0-3.523-6.143c-1.662-2.06-3.1-4.228-4.689-6.324-1.042-1.373-2.158-2.71-3.4-4.246-2.406,1.247-4.49,2.313-6.822,3.505-.2,1.915.471,3.6,3.3,4.517a11.475,11.475,0,0,1,7.318,6.45,35.49,35.49,0,0,0,5.582,9.179c1.861,2.078,1.662,4.336.174,6.414-1.91,2.656-.843,4.951,1.116,7.191a19.54,19.54,0,0,0,2.9,2.6,56.082,56.082,0,0,1,12.85,13.858,23.8,23.8,0,0,0,6.177,6.143A151.3,151.3,0,0,0,273.04,188.32a21.263,21.263,0,0,1,5.681,3.939c5.532,5.565,10.816,11.274,16.175,16.93.372.4.918.885.868,1.265-.67,3.848,2.7,6.667,4.788,9.721,2.431,3.559,5.755,6.794,8.683,10.154,1.29,1.482,2.977,2.837,3.82,4.427,1.538,2.891-.223,5.077-4.441,5.728-3,.452-6.078.65-9.129.885a54.544,54.544,0,0,0-13.272,2.62c-.6.2-1.24.343-1.811.542-6.649,2.4-13.223,1.283-19.8-.163a8.622,8.622,0,0,1-2.233-.994,1.307,1.307,0,0,1,.471-2.4c.819-.217,1.712-.307,2.53-.488a66.307,66.307,0,0,0,17.961-6.866c4.317-2.475,5.036-4.878,2.506-8.4a55.457,55.457,0,0,0-4.565-5Z" transform="translate(-145.934 -32.41)" fill="#23377f"/>
</svg>
